<?xml version="1.0" encoding="utf-8"?>
<svg version="1.1" class="o-icon o-icon--30-day-return" xmlns="http://www.w3.org/2000/svg" xmlns:xlink="http://www.w3.org/1999/xlink" x="0px" y="0px"
	 viewBox="0 0 49 39.6" enable-background="new 0 0 49 39.6" xml:space="preserve">
<path fill="currentColor" d="M36.4,39.2c-2.8-0.3-4.2-0.7-4.8-1.4c-0.4-0.6-1.8-2.1-2.9-3.5c-1.8-2.2-2-2.6-1.2-3.2
	c0.7-0.5,1.4-0.7,2.5,0.2c0.7,0.6,2.8,2,3.2,2.2c0-0.2,7.7-4.7,9.3-8.1c0.4-0.8,1.1-2.3,1.6-3.3c0.5-1,0.9-2.9,0.9-4.2
	c-0.1-2.5,0.4-2.8,2.7-1.5c1.3,0.8,1.5,1.1,1.1,3.4c-0.6,3.6-7.6,14.7-9.7,15.5c-1.6,0.5-0.9,1.3,1.2,1.3c2.4,0,4.5,1.6,3.3,2.6
	C42.8,39.7,42.4,39.7,36.4,39.2 M14.2,33.4c-0.6-0.1-1.1-0.5-1.1-0.7c0-1.3,1.6-3.3,3.4-4.3c2.5-1.3,5.8-4.6,5.8-5.7
	c0-0.6-0.5-0.8-1.7-0.7c-4.5,0.2-6-2.3-2.9-4.9c1.7-1.4,3.6-4.2,3.1-4.6c-0.5-0.4-3.9,1.3-4.3,2.2c-0.5,1.1-3.3,0.5-3.7-0.7
	c-0.3-1,2.4-3.6,4.9-4.8c1.5-0.7,3.5-0.3,5.2,0.9c1.3,1,1.4,4.1,0.3,6c-0.7,1.3-0.7,1.4,1.1,1.9c4.4,1.4,4.1,6.5-0.7,11.4
	C20.2,33,17.5,34.2,14.2,33.4z M32.3,29.1c-2.3-0.3-3.9-2.4-4.1-7c-0.1-4.4,5.2-13.3,7.4-11.7c1,0.1,1.3,0.1,0.6-0.2
	c-0.6-0.9-0.6-1.2,0.2-1.6c2-1.1,3-0.6,4,2.3c1.1,3.4,1.2,4.5,0.1,9.3C38,26.3,38,29.4,32.3,29.1z M35.1,23.2c1.5-2.6,2.8-7,2.6-8.2
	c-0.5-3.1-4.3,0.7-5.1,4.9c-0.4,2.2-0.2,5.3,0.9,5.3C33.7,25.2,34.5,24.3,35.1,23.2z M0.7,28.1c-1.4-1.8-0.4-3.5,0.5-6.2
	C2.9,17,6,12.7,10.8,8.4c2.6-2.3,4.8-4.3,4.8-4.3c0,0-1-0.1-2.2-0.1c-2.1,0-4.1-1.3-3.2-2.2C10.7,1.4,18.5,0,20.3,0
	c1.6,0,3.1,1,6.3,4l0,0L26.7,4c0.8,0.8,1.5,1.5,1.9,1.9l1.2,1.2l0,0c0.3,0.3,0.2,1-0.4,1.7c-0.7,0.9-1,0.9-2.1,0.3
	c-0.7-0.4-1.8-0.7-2.5-0.7C24,8.6,23,7.7,22,6.1L20.6,5l-4.8,3.5c-5.2,4.7-9.1,9.7-11.6,16.6C3.1,28.2,2,29.2,0.7,28.1z"/>
</svg>
