<?xml version="1.0" encoding="utf-8"?>
<svg version="1.1" class="o-icon o-icon--chat" xmlns="http://www.w3.org/2000/svg" xmlns:xlink="http://www.w3.org/1999/xlink" x="0px" y="0px"
	 viewBox="0 0 53.5 35.6" enable-background="new 0 0 53.5 35.6" xml:space="preserve">
<path fill="currentColor" d="M41.9,34.3c-3-1.6-6.9-3.4-16.5-1.4c-6,1.2-17.2,2.5-18.4,2c-0.3-0.1-0.5-0.5-0.5-0.9c0-0.4-0.9-2.4-2.1-4.5
	c-1.2-2.1-2.6-5.8-3.1-8.3C-0.1,15.4-0.4,6.6,0.6,5.8C1.8,4.9,9.9,3,18.7,1.4C25,0.3,28.2,0,35.1,0c7.5,0,8.8,0.1,10.1,1
	c0.8,0.6,1.3,1.4,1.1,1.8c-0.2,0.4,0.1,2,0.6,3.6c0.9,2.7,1.5,4.2,4.7,11.5c1.5,3.5,1.1,6.1-1.2,7.9l-1.7,1.3l1.5,2.3
	c0.8,1.3,2,2.7,2.6,3.3c1,0.9,1,1-0.3,2c-1.3,1-1.6,1-3.5,0.3C40.8,31.2,48.7,36,41.9,34.3 M21.5,29.6c2.4-0.2,6.1-0.7,8.2-1.3
	c4.6-1.2,8.4-1.3,11.7-0.2c3,0.9,3.3,1,2.7,0.2c-0.2-0.3-0.6-1.3-0.7-2.3c-0.3-1.5,0-1.8,1.8-2.4c1.9-0.6,2.1-0.9,2.1-2.8
	c0-3-6.5-16.9-7.8-16.7c-3.4,0.3-21.6,3.1-26,3.9c-8.9,1.7-9.2,2.1-7.7,8.8c0.4,1.6,0.8,3.7,1,4.7C7,22.6,7.9,25,8.7,27l1.5,3.6
	l3.5-0.3C15.6,30.1,19.1,29.8,21.5,29.6z M17.4,22.8c-0.6-1.1,1.4-2.8,3.2-2.8c1.4,0,1.7,1.1,0.6,2.7C20.3,23.9,18,24,17.4,22.8z
	 M26.2,20.5c0-1.2,1.9-1.9,3-1.1c0.6,0.4,0.5,0.8-0.1,1.4C27.7,21.9,26.2,21.8,26.2,20.5z M33.2,20.1c0-1.1,1.8-2,2.6-1.4
	c0.6,0.4-0.7,2-1.8,2.3C33.6,21.1,33.2,20.7,33.2,20.1z"/>
</svg>
