<?xml version="1.0" encoding="utf-8"?>
<svg version="1.1" class="o-icon o-icon--fast-delivery" xmlns="http://www.w3.org/2000/svg" xmlns:xlink="http://www.w3.org/1999/xlink" x="0px" y="0px"
	 viewBox="0 0 64.9 32.5" enable-background="new 0 0 64.9 32.5" xml:space="preserve">
<path fill="currentColor" d="M31.6,32.4c-8.4-0.2-9.1-0.7-8.3-5.4c0.3-1.6,1-6.2,1.5-10.1c1.2-8.9,1.7-10.3,3.1-9.8
	c0.6,0.2,2.4-0.1,4-0.6c1.6-0.5,3.4-1,4-1c0.6,0,1.8-0.3,2.7-0.8c0.9-0.4,2.1-0.8,2.6-0.9c0.9-0.2,7.1-1.9,9.3-2.6
	c0.7-0.2,2.9-0.5,5.1-0.6c2.1-0.1,4.9-0.4,6.1-0.5C63.7-0.1,64,0,64,1.4c0,0.8,0.3,1.7,0.6,1.9c0.6,0.4,0.4,10.6-0.5,20.4l-0.4,4.8
	l-3.6,1.2C53.4,32,45,32.8,31.6,32.4 M48.4,27.2c9.6-2.3,10.8-2.7,11-3.6c0.7-2.9,2.1-15.9,1.7-16.4c-0.4-0.5-7,4.7-10.9,8.5
	c-4.5,4.5-5.8,4.8-9.9,1.9c-3.9-2.7-10.4-5.9-10.9-5.3c-0.4,0.5-1.9,8.7-2.4,13.4l-0.4,3.5l7.7-0.2C39.7,28.7,44.1,28.2,48.4,27.2z
	 M46,15.7c0.1-0.2,5-4,7-5.8c4.5-4,5.2-5.1,3-4.6c-0.7,0.2-4.2,0.6-7.6,0.9c-3.5,0.3-7.8,1.1-9.6,1.6c-1.8,0.6-3.9,1-4.7,1
	c-2.1,0-1.3,1.2,2.3,3.4C44.9,17.3,44.8,17.2,46,15.7z M12.4,31.8c-0.8-0.9-0.3-1.4,2.4-2.4c3.4-1.3,3.2-1.3,3.2,0
	C17.9,31.5,13.7,33.3,12.4,31.8z M0,27.8c0-0.7,0.2-1.5,0.5-1.7c0.6-0.4,6.7-2.2,9-2.7c0.8-0.2,3.5-0.9,5.9-1.6
	c2.4-0.7,4.6-1.1,4.9-0.9C20.6,21,20.4,22,20,23c-0.7,1.6-1.4,2-4.9,2.7c-2.2,0.5-5.4,1.2-7,1.7c-1.6,0.5-4.1,1-5.5,1.3
	C0.2,29.1,0,29,0,27.8z M5.6,20.2c-0.2-0.5-0.2-1.3-0.1-1.8c0.3-1,14.3-4.6,15-3.8c0.3,0.3,0.4,1.1,0.3,1.8c-0.2,1-1.1,1.4-4.9,2
	c-2.6,0.4-5.8,1.2-7,1.8C6,21.4,6,21.4,5.6,20.2z"/>
</svg>
