<?xml version="1.0" encoding="utf-8"?>
<svg version="1.1" class="o-icon o-icon--nice-feel" xmlns="http://www.w3.org/2000/svg" xmlns:xlink="http://www.w3.org/1999/xlink" x="0px" y="0px"
	 viewBox="0 0 73.4 37.8" enable-background="new 0 0 73.4 37.8" xml:space="preserve">
<path fill="currentColor" d="M0.1,37.5C-0.4,36.7,1,34,2.4,33.3c0.7-0.4,2.6-0.9,4.1-1.1c2.4-0.3,2.8-0.6,2.7-2.2
	C9.1,27.6,13,19.5,16,15.7c1.3-1.6,2.6-3.6,3-4.5c0.4-0.9,4.2-3.8,8.4-6.6c9.3-6,10.5-6.1,16.4-0.9c2.1,1.8,4.3,4,5,5l1.2,1.7
	l-3.3,4.8C41,23.8,32.7,30.5,31.6,27.5c-0.4-0.9-0.6-0.9-2.2-0.3c-1.6,0.7-1.9,0.6-2.5-0.4c-0.6-1-0.9-1-2.7-0.1
	c-1.1,0.6-1.6,0.9-2.3,0.6c-1.1-0.5-2.5,0.6-4,3c-0.6,0.9-0.6,1.1,1.7,1.1c4.8,0.1,5.9,0,13.7-0.5c12.8-0.8,13.9-0.8,16.4-0.4
	c1.4,0.2,2.4,0.6,2.4,0.9C52,32.2,49.8,36,49.6,36c-1.1-0.2-24.7,0.3-25.2,0.5c-0.4,0.2-3.5,0.4-6.8,0.6c-3.3,0.2-7.4,0.4-9,0.5
	C3.6,38,0.5,37.9,0.1,37.5 M14.5,29.8c2.3-1.7,5.2-5.3,7.3-9.2c1-1.8,2.5-3.8,3.4-4.5c1.5-1.2,1.6-1.2,2.6,0.1
	c1.1,1.4,1.2,1.3-2.8,5.3c-1.3,1.3-1.3,1.4,0.2,0.9c0.9-0.3,2.5-1.4,3.6-2.6c2.7-2.9,4.4-2.6,2.4,0.4c-0.8,1.2-1.4,2.3-1.2,2.5
	c0.1,0.2,1.8-0.7,3.7-2c2.4-1.6,3.3-1.9,2.9-1.1c-2.3,4.6-2.3,4.5,0.7,2.4c1.6-1.2,3.8-3.8,5.4-6.4l2.6-4.4l-1.5-1.6
	c-1.9-1.9-7.6-5.8-8.8-6c-0.5-0.1-2.6,1-4.6,2.5c-8.6,6.1-8.5,6-15.5,19c-1.7,3.1-2.8,5.8-2.6,5.8C12.5,31,13.5,30.5,14.5,29.8z
	 M52.2,26.6c-0.6-0.3-1.8-1.7-2.8-3.2c-1.3-2.1-1.5-3-0.8-4.1c1.1-1.7,2.9-2.1,4-0.9c1.2,1.3,1.7,1,7.2-3.8c2.6-2.3,6-5.1,7.6-6.3
	c2.7-2.1,3-2.1,4.6-1.1c1.7,1,1.7,1.2,0.4,2.4C70,11.9,60,21.8,57.3,24.6C54.7,27.4,54.4,27.5,52.2,26.6z"/>
</svg>
