<?xml version="1.0" encoding="utf-8"?>
<svg version="1.1" class="o-icon o-icon--streetartists" xmlns="http://www.w3.org/2000/svg" xmlns:xlink="http://www.w3.org/1999/xlink" x="0px" y="0px"
	 viewBox="0 0 55.4 44.1" enable-background="new 0 0 55.4 44.1" xml:space="preserve">
<path fill="currentColor" d="M27.2,14.7c-0.4-1-0.6-2.2-0.6-3.8c0-3.4,0.8-5.1,3.5-7.3C33.2,1,36.4-0.3,39.3,0c5.9,0.6,6.5,5.9,1.7,13
	c-0.6,0.9-1.5,1.7-2.5,2.4l3.7-0.5c0.1,0.1,0.3,0.1,0.6,0.1c2,0,4.7,1.3,4.7,2.3c0,0.6,0.3,1.2,0.6,1.3c0.8,0.4-0.5,12.6-1.8,16
	c-0.4,1-0.1,1.1,3.6,0.7c2.9-0.2,4.3-0.1,5,0.4c0.8,0.6,0.7,0.8-0.5,1.1c-0.8,0.2-1.6,0.8-1.8,1.4c-0.5,1.7-2.8,2.5-8.9,3
	c-3.2,0.3-7.4,0.8-9.5,1.1c0,0-28,2.2-32.4,1.3c-1.6-0.4-2.3-2.8-1.3-4.4c0.8-1.3,1.7-1.4,9.1-1.7c2.3-0.1,2.5-0.2,2.9-2.4
	c0.4-2.1,2.7-6.7,6.2-12.5c0.7-1.2,1.2-2.5,1-2.9c-0.3-0.6,0.5-1.2,2.5-1.8c0.2-0.1,0.8-0.3,1.4-0.4c0.6-0.2,1.7-0.4,2.4-0.5
	c1-0.1,1.3-0.6,1.2-1.6C27.2,15.4,27.2,15,27.2,14.7 M36.1,11.3c0-0.5-0.4-0.9-0.9-0.9c-1.2,0-2.3,2.1-1.8,3.2
	c0.4,0.8,0.5,0.8,1.5-0.3C35.6,12.7,36.1,11.8,36.1,11.3z M32.4,7.8c0.8-1.5,0.9-3.1,0.1-3.1c-0.9,0-2.4,2.7-2,3.6
	C31.1,9.3,31.7,9.2,32.4,7.8z M40.3,7.7c1.2-1.1,1.7-2.4,1.3-3.2c-0.8-1.7-3.7-0.1-3.7,2.1C37.8,8.6,38.8,9.1,40.3,7.7z M29.4,37.3
	c11-0.8,10.4-0.4,11.3-6.2c0.3-1.7,0.6-3.5,0.7-4c0.1-0.5,0.4-2.2,0.7-3.9l0.5-3.1L38,20.5c-8.4,0.7-12.4,2.7-15.3,7.5
	c-2,3.3-4.1,6.6-6.1,9.9h1.6C19,38,24.1,37.7,29.4,37.3z"/>
</svg>
