<svg version="1.1" class="o-logo--exist" xmlns="http://www.w3.org/2000/svg" xmlns:xlink="http://www.w3.org/1999/xlink" x="0px" y="0px"
	 viewBox="0 0 373.96 161.16" enable-background="new 0 0 373.96 161.16" xml:space="preserve">
<g>
	<path fill="#FFFFFF" d="M65.62,138.63c-8.33,2.04-17,3.57-25.67,3.57C18.87,142.2,0,133.7,0,103.1c0-23.97,16.83-51.68,47.43-51.68
		c20.91,0,32.64,12.58,32.64,33.15c0,5.78-0.68,10.71-1.53,15.81H17.51c-0.34,1.87-0.51,3.57-0.51,5.44
		c0,18.19,11.22,23.46,26.69,23.46c7.99,0,16.66-2.04,24.48-5.27L65.62,138.63z M63.58,88.48c0.34-2.55,0.51-4.59,0.51-6.63
		c0-10.2-6.29-17.51-18.36-17.51c-13.09,0-23.12,11.39-26.52,24.14H63.58z"/>
</g>
<g>
	<path stroke="#FFFFFF" fill="#FFFFFF" d="M216.92,52.68h12.58l-18.68,86.93h-12.58L216.92,52.68z"/>
	<path stroke="#FFFFFF" fill="#FFFFFF" d="M289.15,66.38c-4.11-2.49-9.22-4.23-15.82-4.23c-8.22,0-17.19,3.24-17.19,13.58
		c0,14.57,29.64,14.7,29.64,37.49c0,13.08-9.09,27.9-30.01,27.9c-10.09,0-17.31-2.24-24.29-4.98l3.99-11.46
		c5.11,3.24,12.21,5.48,18.31,5.48c13.2,0,18.81-8.22,18.81-15.44c0-17.68-29.64-14.57-29.64-38.73c0-15.82,14.45-24.78,28.77-24.78
		c7.22,0,14.32,1.37,20.92,4.11L289.15,66.38z"/>
	<path stroke="#FFFFFF" fill="#FFFFFF" d="M370.97,63.64h-27.03l-16.32,75.97h-12.58l16.31-75.97h-27.03l2.37-10.96h66.63L370.97,63.64z"/>
</g>
<g>
	<path fill="#FFFFFF" d="M152.21,96.27l29.58,58.21h-29.58l-19.56-42.23l-43.9,48.91l-20.28-13.12l52.72-54.87L92.81,35.91h28.39
		l19.09,41.75l43.18-48.19l19.8,12.64L152.21,96.27z"/>
</g>
<path fill="#FFFFFF" d="M165.18,16.18c0,8.93-7.24,16.18-16.18,16.18c-8.94,0-16.18-7.24-16.18-16.18S140.06,0,149,0
	C157.94,0,165.18,7.25,165.18,16.18z"/>
</svg>
