<?xml version="1.0" encoding="utf-8"?>
<svg version="1.1" class="0-logo" xmlns="http://www.w3.org/2000/svg" xmlns:xlink="http://www.w3.org/1999/xlink" x="0px" y="0px"
	 viewBox="0 0 160.1 161.9" enable-background="new 0 0 160.1 161.9" xml:space="preserve">
<g>
	<g>
		<path fill="#008277" d="M12.5,71.3c0,0,0,0.1-0.1,0.3c0,0.2-0.1,0.3,0,0.3c0,0,0,0.1,0,0.3c1.8-0.5,2.7-0.7,2.9-0.8
			c0.9-0.2,1.6,0,1.9,0.5c0.1,0.2,0.2,0.4,0.1,0.6c0,0.2-0.2,0.4-0.4,0.5c-0.3,0.2-0.6,0.3-0.9,0.3c-0.2,0-0.5,0-0.7,0.1
			c-0.2,0-0.5,0.1-0.8,0.2c-0.3,0.1-0.5,0.2-0.7,0.2c-0.2,0.1-0.4,0.1-0.8,0.3c-0.4,0.1-0.6,0.2-0.7,0.2c-0.2,0.1-0.3,0.2-0.3,0.3
			c0,0,0,0.3-0.1,0.7c-0.1,0.5-0.1,0.8-0.2,1.1c0,0.6-0.1,1.5-0.3,2.8c-0.2,1.2-0.3,2.2-0.3,2.8c0,0.3-0.2,0.6-0.4,0.8
			c-0.3,0.3-0.6,0.4-0.9,0.3c-0.3-0.1-0.5-0.3-0.7-0.6c-0.1-0.2-0.1-0.5-0.1-0.7c0-0.4,0.1-0.9,0.1-1.6c0.1-0.7,0.1-1.3,0.2-1.9
			c0.1-0.6,0.2-1.1,0.3-1.6c0-0.1,0-0.2,0-0.3c0-0.1,0-0.2,0-0.3c0.1-0.4-0.1-0.7-0.4-0.8c-0.2-0.1-0.4-0.2-0.5-0.5
			c-0.1-0.2,0-0.5,0.1-0.7c0,0,0-0.1,0.1-0.2c0-0.1,0.1-0.1,0.1-0.2c0,0,0-0.1,0.1-0.1c0-0.1,0.1-0.1,0.1-0.1c0,0,0.1-0.1,0.1-0.1
			s0.1-0.1,0.1-0.1c0,0,0.1-0.1,0.1-0.1s0.1,0,0.2,0c0.1,0,0.2-0.2,0.2-0.3c0.1-0.7,0.3-1.7,0.4-3.1c0.1-1.3,0.2-2.3,0.3-2.9
			c0-0.1,0-0.2,0-0.2c0,0-0.1,0-0.2,0c-0.5,0.3-1,0.5-1.6,0.8c-0.3,0.2-0.7,0.2-1.2,0c-0.5-0.2-0.7-0.5-0.7-0.9
			c0-0.2,0.1-0.4,0.2-0.7s0.3-0.3,0.6-0.4c0.2,0,0.4-0.1,0.6-0.1c0.2-0.1,0.4-0.2,0.6-0.3C9.6,65.1,9.8,65,9.9,65
			c0.2-0.1,0.4-0.2,0.7-0.3c0.3-0.1,0.5-0.2,0.7-0.3c0.2-0.1,0.3-0.2,0.3-0.4c0-0.1,0-0.3,0-0.5c0-0.2,0.1-0.4,0.1-0.5
			c0-0.5,0.2-0.9,0.8-1c0.2-0.1,0.5,0,0.7,0.1s0.5,0.3,0.6,0.5c0,0.1,0,0.3,0,0.6s0.1,0.4,0.4,0.3c0.5-0.2,1.5-0.4,3-0.6
			c1.3-0.2,2.3-0.2,2.9-0.1c0.2,0.1,0.5,0.2,0.6,0.5c0.2,0.2,0.2,0.5,0.2,0.7c0,0.5-0.4,0.8-1,0.8c-0.3,0-0.6,0-0.9,0
			c-0.3,0-0.5,0-0.9,0c-0.3,0-0.6,0-0.9,0.1c-1.6,0.3-2.8,0.6-3.6,0.9c-0.1,0.1-0.2,0.2-0.3,0.4c-0.1,0.3-0.2,1.1-0.4,2.5
			c-0.1,0.3-0.1,0.7-0.2,1.3C12.7,70.5,12.6,71,12.5,71.3z"/>
		<path fill="#008277" d="M23.8,69.7c0.6,0.3,1,0.7,1.3,1.2c0.3,0.5,0.4,1,0.3,1.7c-0.3,2.3-1.1,4.2-2.6,5.6c-0.8,0.8-1.7,1-2.7,0.7
			c-0.9-0.2-1.5-0.9-1.8-1.9c-0.1-0.5-0.2-0.9-0.1-1.2c0-1.1,0.3-2.2,0.8-3.5c0.3-0.6,0.6-1.2,0.9-1.6c0.1-0.1,0.1-0.3,0.1-0.5
			c0-0.2,0.1-0.4,0.1-0.4c0.1-0.3,0.2-0.4,0.3-0.4c0.1-0.1,0.3-0.1,0.6-0.3c0.3-0.1,0.5-0.2,0.7-0.3s0.4-0.1,0.6-0.1
			c0.4,0,0.8,0.2,1,0.7C23.5,69.4,23.6,69.6,23.8,69.7z M23.4,72.4c0-0.3-0.1-0.5-0.4-0.8c-0.3-0.3-0.6-0.4-0.8-0.3
			c-0.1,0-0.2,0.1-0.2,0.1c-0.9,1.4-1.5,2.8-1.6,4.1c0,0.4,0.1,0.6,0.1,0.6s0,0.1,0,0.1c0,0,0,0.1,0,0.1c0,0,0,0.1,0,0.1
			c0,0,0,0.1,0.1,0.1s0,0.1,0.1,0.1c0,0,0.1,0.1,0.1,0.1c0.3,0.1,0.5,0,0.8-0.3C22.5,75.4,23.2,74,23.4,72.4z"/>
		<path fill="#008277" d="M35.3,70.5c0.4,0.6,0.4,1-0.1,1.4c-0.2,0.2-0.4,0.2-0.8,0.2c-0.4,0-0.6-0.1-0.8-0.3
			c-0.1,0-0.3-0.4-0.8-0.9c-0.2-0.2-0.3-0.2-0.4,0.1c-0.1,0.3-0.4,0.8-0.8,1.6c-0.4,0.7-0.7,1.3-0.8,1.7c-0.1,0.2-0.2,0.5-0.3,0.8
			s-0.3,0.6-0.4,0.9c-0.1,0.3-0.2,0.6-0.3,0.8c-0.1,0.4-0.4,0.8-0.8,1.1c-0.4,0.2-0.7,0.2-1.1,0s-0.6-0.4-0.7-0.8
			c-0.1-0.2-0.1-0.5-0.1-0.8c0-0.3,0-0.6-0.1-0.7c0-0.2,0-0.5,0-0.9c0-0.4,0-0.7,0-0.8c0-0.3,0-0.8,0.1-1.4c0-0.3,0.1-0.7,0.4-1
			c0.2-0.3,0.5-0.4,0.9-0.2c0.7,0.3,1,0.7,0.9,1.3c0,0,0,0.2,0.1,0.5c0.2-0.2,0.3-0.5,0.4-0.7c0.1-0.2,0.3-0.6,0.5-1
			c0.2-0.4,0.3-0.7,0.4-0.8c0.2-0.4,0.5-0.9,1-1.6c0.3-0.3,0.6-0.5,1-0.5c0.4,0,0.8,0.1,1.2,0.4C34.2,69.1,34.8,69.7,35.3,70.5z"/>
		<path fill="#008277" d="M39.4,69.3c-0.5,0.5-0.8,1-0.9,1.5c-0.1,0.3,0,0.6,0.2,0.7c0.1,0.1,0.2,0.2,0.5,0.5
			c0.3,0.3,0.5,0.5,0.6,0.6c0.8,0.7,1.2,1.5,1.4,2.3c0.1,0.5,0,1.1-0.3,1.7c-0.3,0.6-0.8,1.1-1.3,1.4c-1.1,0.5-2,0.7-2.9,0.6
			c-0.1,0-0.3,0-0.4,0c-0.2,0-0.3,0-0.4,0c-0.2,0-0.4-0.1-0.6-0.3c-0.2-0.2-0.3-0.4-0.4-0.5c0-0.2,0-0.4,0.1-0.7
			c0.1-0.2,0.3-0.4,0.4-0.5c0,0,0.3,0,0.9-0.1c0.1,0,0.3,0.1,0.5,0.1s0.3,0,0.4,0c0.1,0,0.3-0.1,0.5-0.1c0.2,0,0.4-0.1,0.5-0.1
			c0.3-0.1,0.5-0.2,0.7-0.4c0.2-0.2,0.2-0.4,0.2-0.7c-0.1-0.4-0.3-0.7-0.6-0.9c-0.8-0.6-1.4-1.3-1.8-1.9c-0.4-0.6-0.4-1.4-0.2-2.3
			c0.2-0.8,0.6-1.5,1.2-2c0.9-0.9,1.8-1.2,2.8-0.9c0.4,0.1,0.7,0.3,1.1,0.8c0.3,0.4,0.5,0.8,0.5,1.2c0,0.3-0.1,0.6-0.4,0.8
			s-0.6,0.2-0.9,0c-0.5-0.2-0.8-0.4-0.9-0.6C39.8,69.1,39.6,69.1,39.4,69.3z"/>
		<path fill="#008277" d="M48.8,76.6c0,0.2-0.1,0.5-0.5,0.7c-0.6,0.4-1.5,0.6-2.5,0.5c-1-0.1-1.8-0.4-2.4-1.1
			c-0.6-0.7-0.9-1.6-0.9-2.7c0-1.6,0.4-3.1,1.2-4.5c0.4-0.8,1-1.4,1.9-1.8c0.2-0.1,0.5-0.1,0.9,0c0.4,0.1,0.7,0.3,0.9,0.5
			c0.2,0.2,0.4,0.5,0.5,0.8c0.3,0.7,0.2,1.2-0.5,1.5c-0.1,0.1-0.2,0.1-0.3,0.1s-0.2,0-0.3-0.1c-0.1,0-0.1-0.1-0.2-0.1
			s-0.1-0.1-0.2-0.2c-0.1-0.1-0.1-0.1-0.2-0.1c-0.1-0.1-0.2-0.1-0.2-0.1s-0.1,0.1-0.2,0.2c-0.4,0.5-0.8,1.4-1,2.5
			c-0.2,0.8-0.2,1.4-0.1,1.7c0.1,0.5,0.3,0.8,0.5,0.9c0.2,0.2,0.6,0.2,1.1,0.2c0.2,0,0.5-0.1,0.8-0.2C48.1,75,48.7,75.4,48.8,76.6z"
			/>
		<path fill="#008277" d="M57.9,83.2c0.1,0.8-0.1,1.2-0.7,1.3c-0.3,0.1-0.5,0-0.8-0.2s-0.4-0.4-0.5-0.7c-0.1-0.5-0.2-1-0.2-1.6
			c0-0.6,0-1.1,0-1.6c0-0.5,0-1,0-1.6c-0.1-1.6-0.1-2.5-0.1-2.8c0-0.2,0-0.5,0-0.9c0-0.4,0-0.7,0-0.9s0-0.5-0.1-0.9
			c-0.1-0.4-0.1-0.7-0.1-0.8c0-0.3-0.2-0.4-0.5-0.3c-0.5,0.2-0.9,0.5-1.2,0.9c-0.1,0.1-0.1,0.1-0.2,0.2c-0.1,0.1-0.1,0.2-0.2,0.3
			c-0.1,0.1-0.1,0.1-0.2,0.2c-0.1,0.1-0.2,0.1-0.3,0.2c-0.1,0-0.2,0.1-0.2,0.3c0,0.1-0.1,0.6-0.3,1.6c0,0.2-0.1,1.1-0.2,2.4
			c0,0.2-0.1,0.5-0.1,0.9c-0.1,0.4-0.1,0.6-0.1,0.8c0,0.4-0.2,0.6-0.5,0.8c-0.3,0.1-0.6,0.1-0.9,0c-0.3-0.2-0.5-0.4-0.5-0.9
			c-0.1-0.5,0-1.4,0.2-2.7c0-0.1,0-0.3,0.1-0.6c0-0.3,0.1-0.5,0.1-0.6c0.2-1.1,0.3-1.8,0.3-2.3c0-0.4,0.1-0.9,0.3-1.5
			c0.1-0.6,0.2-1.1,0.2-1.3c0.2-1.6,0.5-3.1,0.7-4.3c0.1-0.5,0.2-1.7,0.5-3.7c0-0.2,0.1-0.4,0.1-0.7c0.1-0.3,0.1-0.5,0.1-0.7
			c0.1-0.3,0.2-0.5,0.5-0.7c0.3-0.2,0.5-0.3,0.8-0.2c0.3,0.1,0.6,0.3,0.7,0.6c0.1,0.3,0.2,0.6,0.1,1c-0.3,1-0.4,1.9-0.5,2.8
			c0,0.3-0.1,0.5-0.1,0.8c0,0.3-0.1,0.6-0.2,1c-0.1,0.4-0.2,0.6-0.2,0.8c-0.1,0.2-0.1,0.6-0.1,1c0,0.4-0.1,0.8-0.1,1.2
			s-0.1,0.7-0.3,1.1c0.6-0.3,0.9-0.5,1.1-0.6c0.6-0.2,1.4-0.1,2.3,0.3c0.1,0,0.2,0.1,0.2,0.3c0.5,1,0.7,1.9,0.8,2.7
			c0.1,0.9,0.1,2,0.1,3.5c0,0,0,0.9,0,2.7C57.6,81.1,57.7,82.3,57.9,83.2z"/>
		<path fill="#008277" d="M68,75.7c0.2,0.8,0.2,1.4,0.2,1.7c0,0.3-0.2,0.6-0.4,0.8c-0.2,0.2-0.4,0.4-0.6,0.4c-0.2,0-0.5-0.1-0.7-0.4
			c-0.2-0.2-0.3-0.5-0.4-0.8c-0.1-0.9-0.2-1.8-0.4-2.6c-0.4,0.6-0.8,1.1-1.3,1.7c-0.5,0.5-1,1-1.7,1.4c-0.4,0.2-0.8,0.4-1.3,0.4
			c-0.4,0-0.9,0-1.3-0.2s-0.7-0.6-1-1c-0.2-0.4-0.3-0.8-0.3-1.3c0-0.5,0-0.9,0.1-1.3c0-0.1,0-0.2,0-0.6c0-0.3,0-0.5,0-0.7
			c0.2-1.2,0.5-2,0.7-2.6c0.1-0.2,0.3-0.7,0.6-1.5c0.2-0.4,0.6-0.7,1.2-0.9c0.2-0.1,0.4,0,0.7,0.2c0.2,0.2,0.3,0.4,0.3,0.6
			c0,0.3-0.1,0.7-0.3,1c-0.9,1.7-1.3,3.6-1.2,5.7c0,0.4,0.2,0.5,0.6,0.3c0.7-0.5,1.3-1.2,1.9-2c0.7-1.1,1.2-1.7,1.5-2
			c0.5-0.5,1-0.7,1.5-0.5c0.5,0.2,0.8,0.5,1,1.1c0.1,0.4,0.2,0.9,0.3,1.7C67.9,74.9,67.9,75.4,68,75.7z"/>
		<path fill="#008277" d="M77.9,78.6c0,0.1,0,0.4,0,0.7c0,0.3,0,0.5,0,0.7s0,0.4,0,0.7c-0.1,0.5-0.4,0.8-0.9,0.9
			c-0.2,0-0.5,0-0.7-0.2c-0.2-0.1-0.4-0.3-0.5-0.6c-0.1-0.2-0.2-0.5-0.2-0.9c-0.1-3.3-0.2-5.3-0.2-6c0-0.2,0-0.3,0-0.6
			c0-0.2,0-0.4,0-0.6s0-0.4,0-0.6c0-0.2-0.1-0.4-0.1-0.6c-0.7,1.2-1.1,1.8-1.2,1.9c-0.2,0.3-0.5,0.8-1,1.6c-0.5,0.7-0.8,1.3-1.1,1.7
			c-0.1,0.2-0.3,0.3-0.4,0.4c-0.2,0.1-0.3,0.2-0.5,0.2c-0.2,0-0.4,0-0.6,0c-0.3-0.1-0.5-0.2-0.7-0.5c-0.2-0.2-0.3-0.5-0.3-0.9
			c-0.1-1.6,0-3.5,0.1-5.7c0-0.2,0-0.5,0.1-1c0-0.4,0.1-0.7,0.1-1c0-0.2,0.1-0.5,0.3-0.7c0.2-0.2,0.4-0.4,0.7-0.4
			c0.4-0.1,0.8,0.1,1,0.5c0.1,0.1,0.1,0.2,0.1,0.4c0,0.1,0,0.3,0,0.3s0,0.2,0,0.4c0,0.2,0,0.3,0,0.3c-0.1,1.4-0.2,2.7-0.2,3.8
			c0.1,0,0.2,0,0.3-0.1c0.1-0.3,0.3-0.6,0.5-0.9c0.2-0.3,0.4-0.7,0.7-1c0.3-0.4,0.5-0.7,0.6-0.9c0.4-0.6,0.8-1.1,1.2-1.4
			c0.3-0.2,0.7-0.3,1.2-0.2c0.4,0.1,0.7,0.4,0.9,0.8c0.3,0.6,0.4,1.4,0.5,2.5c0,0.6,0.1,1.4,0.1,2.2s0.1,1.6,0.1,2.4
			C77.8,77.2,77.8,77.9,77.9,78.6z"/>
		<path fill="#008277" d="M86.4,71.7c0.3,0.3,0.4,0.8,0.3,1.5c-0.1,0.3-0.3,1.9-0.8,4.5c-0.5,2.8-0.8,4.4-0.8,4.9
			c-0.1,0.8-0.2,1.7-0.4,2.5c-0.1,0.3-0.2,0.6-0.4,0.8C84,86,83.8,86.1,83.5,86c-0.7-0.1-1.1-0.5-1-1.3c0-0.3,0.1-0.7,0.1-1.2
			c0.1-0.5,0.1-0.9,0.2-1.2c0-0.4,0.1-1.1,0.3-1.9c0.2-0.8,0.3-1.5,0.3-1.9c0-0.2,0.1-0.4,0.1-0.7c0-0.2,0.1-0.5,0.1-0.6
			c0.1-0.2,0.1-0.4,0.2-0.7s0.1-0.5,0.1-0.7l0-0.4c-0.6,0.7-0.9,1.1-0.9,1.2c-0.5,0.5-0.8,0.9-1.1,1c-0.6,0.4-1.2,0.4-1.7,0
			c-0.5-0.3-0.7-0.8-0.7-1.5c0-1.5,0.4-3,1.3-4.7c0.6-1.2,1.3-2.2,2-2.9c0.7-0.6,1.4-1,2-0.9c0.3,0,0.6,0.1,0.8,0.3
			c0.2,0.2,0.4,0.4,0.5,0.7c0.2,0.5,0.2,1,0.2,1.4c0,0.2-0.1,0.4-0.1,0.4c-0.1,0.1-0.2,0.1-0.2,0.2C86,70.9,86,71,86,71
			c0,0,0,0.1,0,0.2c0,0.1,0.1,0.1,0.1,0.2s0.1,0.1,0.1,0.2C86.3,71.6,86.3,71.6,86.4,71.7z M83.6,72.6c0,0,0.1-0.1,0.2-0.3
			c0.1-0.2,0.2-0.3,0.3-0.3c0.1-0.1,0.1-0.1,0.3-0.3c0.1-0.1,0.2-0.2,0.3-0.3c0.1-0.1,0.2-0.2,0.3-0.2c0,0-0.1-0.1-0.2-0.2
			s-0.2-0.2-0.2-0.2c0,0-0.1-0.1-0.1-0.2c0-0.1-0.1-0.2-0.1-0.3c-1.1,1.4-1.8,2.7-2.1,3.9C82.6,73.8,83,73.3,83.6,72.6z"/>
		<path fill="#008277" d="M91.6,69.3c-0.5,0.5-0.8,1-0.9,1.5c-0.1,0.3,0,0.6,0.2,0.7c0.1,0.1,0.2,0.2,0.5,0.5
			c0.3,0.3,0.5,0.5,0.6,0.6c0.8,0.7,1.2,1.5,1.4,2.3c0.1,0.5,0,1.1-0.3,1.7c-0.3,0.6-0.8,1.1-1.3,1.4c-1.1,0.5-2,0.7-2.9,0.6
			c-0.1,0-0.3,0-0.4,0c-0.2,0-0.3,0-0.4,0c-0.2,0-0.4-0.1-0.6-0.3c-0.2-0.2-0.3-0.4-0.4-0.5c0-0.2,0-0.4,0.1-0.7
			c0.1-0.2,0.3-0.4,0.4-0.5c0,0,0.3,0,0.9-0.1c0.1,0,0.3,0.1,0.5,0.1s0.3,0,0.4,0c0.1,0,0.3-0.1,0.5-0.1s0.4-0.1,0.5-0.1
			c0.3-0.1,0.5-0.2,0.7-0.4c0.2-0.2,0.2-0.4,0.2-0.7c-0.1-0.4-0.3-0.7-0.6-0.9c-0.8-0.6-1.4-1.3-1.8-1.9c-0.4-0.6-0.4-1.4-0.2-2.3
			c0.2-0.8,0.6-1.5,1.2-2c0.9-0.9,1.8-1.2,2.8-0.9c0.4,0.1,0.7,0.3,1.1,0.8s0.5,0.8,0.5,1.2c0,0.3-0.1,0.6-0.4,0.8
			c-0.3,0.2-0.6,0.2-0.9,0c-0.5-0.2-0.8-0.4-0.9-0.6C92,69.1,91.8,69.1,91.6,69.3z"/>
		<path fill="#008277" d="M100.9,72.1c0.4,1.6,0.7,2.9,1,3.7c0.1-0.1,0.1-0.4,0.2-0.7c0.1-0.4,0.3-2.3,0.6-5.6
			c0.3-2.3,0.4-3.8,0.5-4.5c0-0.2,0.1-0.4,0.1-0.6c0.2-0.6,0.6-0.8,1.2-0.7c0.2,0,0.5,0.2,0.6,0.4c0.2,0.2,0.3,0.5,0.3,0.7
			c0,0.5-0.1,1.2-0.2,2.2c-0.1,0.4-0.1,1.1-0.2,2c-0.1,0.9-0.2,1.6-0.2,2.1c-0.1,0.6-0.2,1.3-0.3,2.1c-0.1,0.8-0.2,1.6-0.3,2.4
			c-0.1,0.8-0.2,1.4-0.4,2.1c-0.1,0.3-0.2,0.6-0.3,0.9c-0.2,0.6-0.6,0.9-1.1,0.9c-0.5,0.1-1-0.1-1.3-0.5c-0.3-0.3-0.6-0.9-0.9-1.6
			c-0.2-0.6-0.5-1.4-0.8-2.4c-0.3-1.1-0.5-1.7-0.5-1.9c-0.2-0.8-0.4-1.4-0.4-1.9c0-0.2-0.1-0.4-0.2-0.5c0,0.2-0.1,0.4-0.1,0.7
			c0,0.2-0.1,0.4-0.1,0.6c0,0.2,0,0.4,0,0.6s0,0.4-0.1,0.6c-0.1,0.7-0.2,1.7-0.3,3c0,0.2-0.1,0.6-0.1,1.3c-0.1,0.7-0.1,1.3-0.1,1.7
			c0,0.4,0,0.9,0,1.3c0,0.3,0,0.6-0.2,0.9c-0.2,0.2-0.4,0.4-0.6,0.4c-0.3,0.1-0.7,0-0.9-0.2c-0.3-0.2-0.4-0.6-0.4-1
			c-0.1-0.9,0-2.2,0.2-3.8c0-0.4,0.1-0.8,0.1-1.2c0-0.4,0.1-0.9,0.1-1.2c0-0.4,0.1-0.8,0.1-1.2c0-0.4,0.1-0.8,0.1-1.2
			c0.4-3.5,0.7-5.9,0.9-7.2c0-0.1,0-0.1,0-0.3c0-0.1,0-0.2,0-0.3s0-0.2,0.1-0.3c0-0.1,0.1-0.2,0.1-0.3c0.1-0.2,0.4-0.3,0.7-0.4
			c0.4,0,0.6,0,0.8,0.2c0.6,0.4,0.9,0.9,0.9,1.5c0,0.2,0.1,0.5,0.1,0.8s0.1,0.5,0.1,0.8c0,0.3,0.1,0.5,0.1,0.8
			c0,0.2,0.1,0.5,0.2,0.8c0.1,0.3,0.1,0.6,0.1,0.8C100.4,69.9,100.6,70.9,100.9,72.1z"/>
		<path fill="#008277" d="M111.7,69.7c0.6,0.3,1,0.7,1.3,1.2c0.3,0.5,0.4,1,0.3,1.7c-0.3,2.3-1.1,4.2-2.6,5.6
			c-0.8,0.8-1.7,1-2.7,0.7c-0.9-0.2-1.5-0.9-1.8-1.9c-0.1-0.5-0.2-0.9-0.1-1.2c0-1.1,0.3-2.2,0.8-3.5c0.3-0.6,0.6-1.2,0.9-1.6
			c0.1-0.1,0.1-0.3,0.1-0.5c0-0.2,0.1-0.4,0.1-0.4c0.1-0.3,0.2-0.4,0.3-0.4c0.1-0.1,0.3-0.1,0.6-0.3c0.3-0.1,0.5-0.2,0.7-0.3
			c0.2-0.1,0.4-0.1,0.6-0.1c0.4,0,0.8,0.2,1,0.7C111.3,69.4,111.5,69.6,111.7,69.7z M111.3,72.4c0-0.3-0.1-0.5-0.4-0.8
			c-0.3-0.3-0.6-0.4-0.8-0.3c-0.1,0-0.2,0.1-0.2,0.1c-0.9,1.4-1.5,2.8-1.6,4.1c0,0.4,0.1,0.6,0.1,0.6c0,0,0,0.1,0,0.1
			c0,0,0,0.1,0,0.1c0,0,0,0.1,0,0.1c0,0,0,0.1,0.1,0.1s0,0.1,0.1,0.1c0,0,0.1,0.1,0.1,0.1c0.3,0.1,0.5,0,0.8-0.3
			C110.4,75.4,111,74,111.3,72.4z"/>
		<path fill="#008277" d="M119.6,65.6c0.6,0.5,0.8,1,0.6,1.4c-0.1,0.2-0.3,0.3-0.6,0.4c-0.3,0.1-0.6,0.1-0.9,0
			c-0.2,0-0.4-0.1-0.6-0.1c-0.3-0.1-0.5-0.1-0.6-0.1c-0.1,0-0.2,0-0.3,0c0,0.1-0.1,0.2,0,0.3c0,0.1,0.1,0.3,0.1,0.4
			c0,0.1,0,0.3,0,0.5c0,0.2,0,0.3,0,0.4c0,0.2,0,0.5,0,0.8s0,0.6,0,0.9c0,0.3,0,0.6,0,0.8c0,0.3,0,1,0,2c0,1.1,0,1.7-0.1,2
			c0,0.2,0,0.4,0,0.7c0,0.3,0,0.5,0,0.6c0,0.6-0.2,1.1-0.4,1.4c-0.1,0.1-0.2,0.2-0.2,0.2c0,0-0.1,0.1-0.2,0.2
			c-0.1,0.1-0.2,0.1-0.2,0.1c-0.1,0-0.2,0-0.3,0c-0.4-0.1-0.6-0.4-0.7-0.9c-0.1-0.5-0.1-0.9-0.1-1.1c0-0.1,0-0.4,0-1.1
			c0-0.7,0-1.2,0-1.5c0-0.7,0-1.3,0-1.8c0-0.1,0-1.1,0-3.2c0-0.9,0-1.6,0-1.9c0-0.1,0-0.1,0-0.1c0,0-0.1-0.1-0.1-0.1
			c0,0-0.1,0-0.1,0s-0.1,0-0.1,0c-0.2,0-0.7,0-1.5,0c-0.8,0-1.2,0-1.5,0c-0.2,0-0.5-0.1-0.7-0.3c-0.2-0.2-0.3-0.4-0.3-0.7
			c0-0.2,0-0.5,0.2-0.7c0.2-0.2,0.4-0.3,0.6-0.4c0.7-0.1,1.5-0.2,2.3-0.1c0.6,0,1,0,1.1-0.1c0.1-0.1,0.2-0.5,0.2-1.1
			c0-0.2,0-0.3,0-0.5s0-0.4,0-0.6c0-0.2,0-0.4,0-0.5c0-0.6,0.3-0.9,0.9-1c0.2,0,0.4,0.1,0.6,0.3c0.2,0.2,0.3,0.4,0.4,0.6
			c0.1,0.6,0.1,1,0.1,1.3c0,0.3,0,0.9,0,1.7c0,0.3,0.2,0.4,0.4,0.5C118.6,65.1,119.2,65.3,119.6,65.6z"/>
		<path fill="#008277" d="M121.6,68.8c0.2,0,0.5,0.1,0.7,0.2c0.2,0.1,0.4,0.3,0.5,0.4c0.1,0.2,0.2,0.3,0.2,0.5
			c-0.1,0.8-0.1,2.1-0.1,3.9c0,0.3,0,0.8-0.1,1.6c0,0.8,0,1.4,0,1.8c0,0.3,0,0.8,0,1.4c0,0.6-0.3,0.9-0.9,1c-0.3,0-0.5,0-0.8-0.2
			c-0.2-0.2-0.4-0.4-0.4-0.6c-0.1-0.1-0.1-0.5-0.1-1.1s0-1,0-1.1c0-0.1,0-0.9,0-2.3c0-0.3,0-0.8,0-1.4s0-1.2,0.1-1.7
			c0-0.5,0.1-1,0.1-1.4c0-0.3,0.1-0.6,0.3-0.8C121.1,68.8,121.3,68.8,121.6,68.8z M121.5,67c-0.2,0-0.4-0.1-0.6-0.3
			c-0.2-0.2-0.3-0.5-0.3-0.7c0-0.4,0.1-0.8,0.3-1.1c0.2-0.3,0.5-0.4,0.9-0.4c0.3,0,0.5,0.1,0.7,0.3c0.2,0.2,0.3,0.5,0.3,0.9
			c0,0.4-0.1,0.7-0.3,1C122.2,66.8,121.9,67,121.5,67z"/>
		<path fill="#008277" d="M138,75.2c0.3,0.1,0.5,0.3,0.6,0.6c0.1,0.2,0.1,0.5-0.1,0.8c-0.3,0.5-0.9,0.8-1.7,1
			c-1.7,0.5-3.5,0.8-5.6,1.1c-0.2,0-0.5,0.1-1,0.2c-0.5,0.1-0.9,0.1-1.2,0.2c-0.3,0-0.7,0.1-1,0.1c-0.3,0.1-0.7,0.1-1.2,0
			c-0.4-0.1-0.8-0.2-1.1-0.4c-0.6-0.5-0.8-1.1-0.5-1.7c0.2-0.6,0.6-1,1-1.4c0.5-0.5,1.3-1.2,2.3-2.1c1-0.9,1.6-1.5,1.9-1.8
			c0,0,0.1-0.1,0.3-0.4c-1.4,0.1-2.3,0.2-2.9,0.3c-0.9,0.2-1.5,0.3-1.8,0.4c-0.1,0.1-0.4,0.1-0.7-0.1c-0.3-0.1-0.5-0.3-0.6-0.4
			c-0.1-0.2-0.1-0.4-0.1-0.6c0-0.3,0.1-0.5,0.3-0.6c0.2-0.3,0.5-0.5,0.8-0.6c0.3-0.1,0.7-0.2,1.2-0.2c1.4-0.2,2.5-0.3,3.4-0.4
			c0.4-0.1,0.9-0.1,1.5-0.1c0.6,0,1,0.2,1.4,0.5c0.2,0.2,0.4,0.4,0.5,0.7c0.1,0.3,0.1,0.6-0.1,0.9c-0.2,0.5-0.7,1-1.3,1.7
			c-0.5,0.5-1.3,1.2-2.2,2.1c-1,0.9-1.5,1.5-1.6,1.6c0,0-0.1,0.1-0.3,0.4c0,0,0.1,0.1,0.1,0.1c2.2-0.3,3.3-0.5,3.5-0.5
			c2.2-0.4,4.1-0.8,5.7-1.2C137.5,75,137.8,75.1,138,75.2z"/>
		<path fill="#008277" d="M139.7,75.2c0,0-0.1,0-0.1,0c-0.1,0-0.1,0-0.1,0c0,0-0.1,0-0.1,0.1c-0.1,0.1,0,0.3,0.1,0.5
			c0.3,0.5,0.8,0.8,1.5,1c0.1,0,0.2,0,0.3,0.1c0.2,0,0.3,0.1,0.4,0.1c0.1,0,0.2,0.1,0.3,0.1c0.1,0.1,0.2,0.2,0.3,0.3
			c0.1,0.2,0.2,0.4,0.3,0.7c0,0.2,0,0.5,0,0.6c-0.2,0.4-0.6,0.5-1.1,0.4c-1.4-0.2-2.5-0.7-3.3-1.6c-0.6-0.8-1-2-0.9-3.6
			c0-0.1,0-0.3,0-0.6c0-0.3,0-0.6,0-0.8c0-0.2,0-0.5-0.1-0.8c0-0.2,0-0.4,0.1-0.6c0.1-0.2,0.2-0.4,0.4-0.5c0.2-0.1,0.3-0.2,0.6-0.3
			c0.2-0.1,0.4-0.2,0.6-0.4c0.5-0.6,1.3-1,2.4-1.2c0.6-0.1,1.1,0.1,1.7,0.5c0.6,0.4,0.9,1,1.1,1.5c0.2,0.7,0.1,1.4-0.3,2.2
			c-0.4,0.8-1,1.4-1.7,1.8C141.2,75,140.4,75.2,139.7,75.2z M139.6,72.2c-0.1,0.2-0.2,0.4-0.1,0.6c0.1,0.1,0.3,0.2,0.6,0.2
			c0.3,0,0.6-0.1,0.9-0.4c0.3-0.3,0.6-0.6,0.7-1c0.1-0.3,0.1-0.6-0.1-0.8c-0.2-0.2-0.5-0.2-0.8-0.1c-0.2,0.1-0.3,0.1-0.4,0.3
			c-0.1,0.1-0.2,0.2-0.3,0.3c-0.1,0.1-0.1,0.2-0.2,0.4C139.7,72,139.6,72.1,139.6,72.2z"/>
		<path fill="#008277" d="M153.2,78.6c0,0.1,0,0.4,0,0.7c0,0.3,0,0.5,0,0.7s0,0.4,0,0.7c-0.1,0.5-0.4,0.8-0.9,0.9
			c-0.2,0-0.5,0-0.7-0.2c-0.2-0.1-0.4-0.3-0.5-0.6c-0.1-0.2-0.2-0.5-0.2-0.9c-0.1-3.3-0.2-5.3-0.2-6c0-0.2,0-0.3,0-0.6
			c0-0.2,0-0.4,0-0.6s0-0.4,0-0.6c0-0.2-0.1-0.4-0.1-0.6c-0.7,1.2-1.1,1.8-1.2,1.9c-0.2,0.3-0.5,0.8-1,1.6c-0.5,0.7-0.8,1.3-1.1,1.7
			c-0.1,0.2-0.3,0.3-0.4,0.4c-0.2,0.1-0.3,0.2-0.5,0.2c-0.2,0-0.4,0-0.6,0c-0.3-0.1-0.5-0.2-0.7-0.5c-0.2-0.2-0.3-0.5-0.3-0.9
			c-0.1-1.6,0-3.5,0.1-5.7c0-0.2,0-0.5,0.1-1c0-0.4,0.1-0.7,0.1-1c0-0.2,0.1-0.5,0.3-0.7c0.2-0.2,0.4-0.4,0.7-0.4
			c0.4-0.1,0.8,0.1,1,0.5c0.1,0.1,0.1,0.2,0.1,0.4c0,0.1,0,0.3,0,0.3c0,0.1,0,0.2,0,0.4c0,0.2,0,0.3,0,0.3c-0.1,1.4-0.2,2.7-0.2,3.8
			c0.1,0,0.2,0,0.3-0.1c0.1-0.3,0.3-0.6,0.5-0.9c0.2-0.3,0.4-0.7,0.7-1c0.3-0.4,0.5-0.7,0.6-0.9c0.4-0.6,0.8-1.1,1.2-1.4
			c0.3-0.2,0.7-0.3,1.2-0.2c0.4,0.1,0.7,0.4,0.9,0.8c0.3,0.6,0.4,1.4,0.5,2.5c0,0.6,0.1,1.4,0.1,2.2c0,0.8,0.1,1.6,0.1,2.4
			C153.1,77.2,153.2,77.9,153.2,78.6z"/>
	</g>
	<g>
		<path fill="#585856" d="M7,94.8c0.3,0.2,0.8,0.4,1.2,0.4c0.6,0,0.7-0.2,0.7-0.7v-6.4h1.9v6.5c0,1.3-0.7,2.2-2.5,2.2
			c-1,0-1.6-0.3-1.8-0.4L7,94.8z"/>
		<path fill="#585856" d="M17,88.1l2.6,8.6h-2l-0.5-2h-2.9l-0.6,2h-1.9l2.6-8.6C14.4,88.1,17,88.1,17,88.1z M14.6,93.2h2L16.3,92
			c-0.3-1.2-0.5-1.8-0.6-2.6h-0.1c-0.1,0.7-0.3,1.4-0.6,2.5L14.6,93.2z"/>
		<path fill="#585856" d="M20.7,88.1h2.7c2.8,0,4,1.4,4,4.1c0,2.2-0.9,4.5-4,4.5h-2.7L20.7,88.1L20.7,88.1z M22.6,95.1h0.7
			c1.8,0,2.3-1.1,2.3-2.8c0-2.1-0.9-2.7-2.3-2.7h-0.7V95.1z"/>
		<path fill="#585856" d="M29,96.7v-8.6h5.1v1.5h-3.2v1.9h2.8v1.5h-2.8v2h3.4v1.5L29,96.7L29,96.7z"/>
		<path fill="#585856" d="M34.9,93.5V92H39v1.5H34.9z"/>
		<path fill="#585856" d="M43.3,96.8c-2.1,0-3.5-1.2-3.5-4.3c0-3.1,1.5-4.5,3.6-4.5c2.1,0,3.5,1.2,3.5,4.4
			C47,95.5,45.4,96.8,43.3,96.8z M43.4,95.3c1,0,1.6-0.7,1.6-2.8c0-2.1-0.6-2.9-1.7-2.9c-0.9,0-1.6,0.7-1.6,2.8
			C41.8,94.5,42.4,95.3,43.4,95.3z"/>
		<path fill="#585856" d="M50.4,88.1v7h3.2v1.5h-5v-8.6C48.5,88.1,50.4,88.1,50.4,88.1z"/>
		<path fill="#585856" d="M54.7,88.1h2.7c2.8,0,4,1.4,4,4.1c0,2.2-0.9,4.5-4,4.5h-2.7L54.7,88.1L54.7,88.1z M56.6,95.1h0.7
			c1.8,0,2.3-1.1,2.3-2.8c0-2.1-0.9-2.7-2.3-2.7h-0.7C56.6,89.6,56.6,95.1,56.6,95.1z"/>
		<path fill="#585856" d="M63,96.7v-8.6h5.1v1.5h-3.2v1.9h2.8v1.5h-2.8v2h3.4v1.5L63,96.7L63,96.7z"/>
		<path fill="#585856" d="M71.6,90.4c0.1,0.9,0.1,1.5,0.1,3v3.2h-1.8v-8.6h2.2l1.8,3.4c0.4,0.8,0.9,1.8,1.2,2.6h0
			C75,92.9,75,91.7,75,90.8v-2.7h1.8v8.6h-2.2l-1.9-3.6C72.3,92.2,72,91.4,71.6,90.4L71.6,90.4z"/>
		<path fill="#585856" d="M85,94.1c0,1.1-0.6,2.6-3.4,2.6h-2.8v-8.6h3.1c1.5,0,2.8,0.5,2.8,2.2c0,1-0.6,1.6-1.2,1.8v0
			C84.2,92.3,85,92.8,85,94.1z M81.6,89.6h-1v1.9h0.9c0.9,0,1.3-0.5,1.3-1C82.8,90.1,82.5,89.6,81.6,89.6z M83.1,94.1
			c0-0.7-0.6-1-1.3-1h-1.2v2.1h1.3C82.8,95.1,83.1,94.6,83.1,94.1z"/>
		<path fill="#585856" d="M91.4,93.6v-5.5h1.9v5.2c0,2.6-1.6,3.5-3.5,3.5c-2.2,0-3.1-1.3-3.1-3.1v-5.6h1.9v5.2
			c0,1.2,0.4,1.9,1.5,1.9C90.9,95.2,91.4,94.8,91.4,93.6z"/>
		<path fill="#585856" d="M98,88.1c1.9,0,3,0.7,3,2.5c0,1.5-0.8,2.2-1.8,2.4v0c0.5,0.2,0.7,0.5,1.1,1.3l1.3,2.4h-2.2L98,93.9
			c-0.2-0.3-0.4-0.4-0.8-0.4h-0.1v3.2h-1.8v-8.6L98,88.1L98,88.1z M97.1,92h0.7c1,0,1.3-0.4,1.3-1.2s-0.5-1.1-1.3-1.1h-0.7
			C97.1,89.7,97.1,92,97.1,92z"/>
		<path fill="#585856" d="M109.1,89l-1.2,1.3c-0.3-0.3-0.8-0.7-1.6-0.7c-1.1,0-2.1,0.6-2.1,2.7c0,2.1,0.7,3,2.1,3
			c0.3,0,0.6,0,0.8-0.1v-2.9h1.9V96c-0.6,0.4-1.5,0.8-3.1,0.8c-2.4,0-3.6-1.5-3.6-4.3c0-3.1,1.8-4.5,4.1-4.5
			C108,88,108.8,88.7,109.1,89z"/>
	</g>
</g>
</svg>
