<svg version="1.1" class="o-logo" xmlns="http://www.w3.org/2000/svg" xmlns:xlink="http://www.w3.org/1999/xlink" x="0px" y="0px" viewBox="0 0 160.1 161.9" enable-background="new 0 0 160.1 161.9" xml:space="preserve"> <rect x="25.9" y="52.1" fill="#008277" width="9.8" height="53.4"></rect> <path fill="#008277" d="M114.6,106.3c14.6,0,25.5-10.2,25.5-28.1c0-15.2-9.2-27-24.7-27c-15.1,0-25.5,11.7-25.5,28
 C89.9,94.7,99.4,106.3,114.6,106.3L114.6,106.3 M115,98.4c-9.4,0-14.7-9-14.7-19.6c0-10.6,5.1-19.9,14.8-19.9s14.7,9.5,14.7,19.6
 C129.8,89.7,124.5,98.4,115,98.4L115,98.4z"></path> <path fill="#008277" d="M85.8,99.6V52.1H76v21.4H53.4V52.1h-9.8v53.4h9.8V82H76v17.2c0,9.3-3.4,11.8-9,11.8c-2.3,0-4.4-0.4-6-1
 l-1.2,7.8c2.1,0.8,5.5,1.3,8.2,1.3C78.6,119.2,85.8,114.3,85.8,99.6"></path> <path fill="#575756" d="M97,39.7L97,39.7c0.8-0.3,1.5-1.1,1.5-2.3c0-2.1-1.5-2.7-3.4-2.7h-3.8v10.5h3.5c3.5,0,4.2-1.9,4.2-3.2
 C99,40.5,98,39.8,97,39.7 M96.3,37.7c0,0.6-0.4,1.2-1.5,1.2h-1.1v-2.3h1.2C96,36.6,96.3,37.1,96.3,37.7z M95.2,43.3h-1.6v-2.5h1.5
 c0.9,0,1.6,0.3,1.6,1.3C96.7,42.7,96.4,43.3,95.2,43.3z M104.9,43.4c-1.3,0-1.9-0.8-1.9-2.3v-6.4h-2.3v6.9c0,2.2,1.1,3.8,3.8,3.8
 c2.3,0,4.3-1.1,4.3-4.3v-6.4h-2.3v6.7C106.6,42.9,106,43.4,104.9,43.4z M110.9,34.7v10.5h2.3v-3.9h0.1c0.5,0,0.8,0.1,1,0.5l1.7,3.4
 h2.7l-1.6-2.9c-0.5-0.9-0.8-1.3-1.4-1.5v-0.1c1.2-0.2,2.2-1.1,2.2-2.9c0-2.2-1.3-3.1-3.6-3.1H110.9z M113.2,36.6h0.9
 c1,0,1.6,0.4,1.6,1.4c0,1-0.4,1.5-1.6,1.5h-0.9V36.6z M124.3,34.6c-2.8,0-5,1.7-5,5.5c0,3.5,1.5,5.3,4.5,5.3c1.9,0,3-0.4,3.8-0.9
 v-4.6h-2.3v3.5c-0.2,0.1-0.7,0.1-1,0.1c-1.8,0-2.6-1.1-2.6-3.7c0-2.5,1.2-3.2,2.5-3.2c1,0,1.5,0.4,1.9,0.8l1.5-1.6
 C127.3,35.4,126.3,34.6,124.3,34.6z M133.5,41l0.4-6.8h-2.7l0.4,6.8H133.5z M131.2,44c0,0.7,0.6,1.3,1.3,1.3c0.8,0,1.4-0.6,1.4-1.3
 c0-0.8-0.6-1.4-1.4-1.4C131.8,42.6,131.2,43.2,131.2,44z"></path> <path fill="#575756" d="M62.8,45.2h3.3c3.9,0,4.9-2.8,4.9-5.5c0-3.4-1.5-5-5-5h-3.3V45.2 M65.1,36.6h0.8c1.7,0,2.8,0.8,2.8,3.3
 c0,2-0.6,3.4-2.8,3.4h-0.8V36.6z M79,45.2v-1.9h-4.1v-2.5h3.4v-1.9h-3.4v-2.3h3.9v-1.9h-6.2v10.5H79z M82.9,37.6
 c0.4,1.2,0.9,2.2,1.4,3.2l2.3,4.4h2.7V34.7h-2.2V38c0,1.1,0,2.6,0.1,4h-0.1c-0.4-1-1-2.2-1.5-3.2l-2.1-4.1h-2.7v10.5H83v-4
 C83,39.4,83,38.6,82.9,37.6L82.9,37.6z"></path> <path fill="#575756" d="M5.5,44.9c0.2,0.1,0.9,0.4,2.2,0.4c2.2,0,3.1-1.2,3.1-2.7v-8H8.6v7.8c0,0.6-0.2,0.9-0.9,0.9
 c-0.5,0-1.1-0.2-1.4-0.5L5.5,44.9 M15.8,39.4c0.4-1.3,0.6-2.2,0.8-3.1h0.1c0.2,0.9,0.4,1.7,0.8,3.1l0.4,1.5h-2.5L15.8,39.4z
 M15,34.7l-3.2,10.5h2.3l0.7-2.4h3.5l0.7,2.4h2.4l-3.2-10.5H15z M22.5,45.2h3.3c3.9,0,4.9-2.8,4.9-5.5c0-3.4-1.5-5-5-5h-3.3V45.2z
 M24.8,36.6h0.8c1.7,0,2.8,0.8,2.8,3.3c0,2-0.6,3.4-2.8,3.4h-0.8V36.6z M38.7,45.2v-1.9h-4.1v-2.5H38v-1.9h-3.4v-2.3h3.9v-1.9h-6.2
 v10.5H38.7z M39.5,41.3h5v-1.8h-5V41.3z M47.6,39.9c0-2.6,0.8-3.4,1.9-3.4c1.3,0,2.1,0.9,2.1,3.5c0,2.6-0.7,3.4-1.9,3.4
 C48.4,43.5,47.6,42.5,47.6,39.9z M53.9,39.9c0-3.9-1.7-5.3-4.3-5.3c-2.5,0-4.4,1.6-4.4,5.5c0,3.9,1.6,5.3,4.3,5.3
 C52.1,45.4,53.9,43.7,53.9,39.9z M55.5,34.7v10.5h6.2v-1.9h-3.9v-8.6H55.5z"></path> <path fill="#575756" d="M12.7,20.5v4.3H8.9v-4.3H6.6V31h2.3v-4.3h3.8V31H15V20.5H12.7 M19,25.6c0-2.6,0.8-3.4,1.9-3.4
 c1.3,0,2.1,0.9,2.1,3.5c0,2.6-0.7,3.4-1.9,3.4C19.8,29.2,19,28.3,19,25.6z M25.3,25.7c0-3.9-1.7-5.3-4.3-5.3c-2.5,0-4.4,1.6-4.4,5.5
 c0,3.9,1.6,5.3,4.3,5.3C23.5,31.1,25.3,29.5,25.3,25.7z M26.4,25.8c0,3.1,1.3,5.3,4.5,5.3c1.8,0,2.9-0.7,3.3-1.2l-1.3-1.6
 c-0.3,0.4-0.9,0.9-1.9,0.9c-1.6,0-2.3-1.3-2.3-3.5c0-2.4,0.7-3.4,2.1-3.4c1.1,0,1.6,0.5,1.9,1l1.5-1.7c-0.3-0.3-1.2-1.2-3.3-1.2
 C28,20.3,26.4,22.5,26.4,25.8z M41.6,20.5v4.3h-3.8v-4.3h-2.3V31h2.3v-4.3h3.8V31h2.3V20.5H41.6z M49.1,29.2c-1.3,0-2.2-0.8-2.6-1.3
 l-1.3,1.9c0.4,0.4,1.6,1.3,3.6,1.3c2.7,0,4-1.5,4-3.1c0-3.3-4.8-3.1-4.8-4.8c0-0.5,0.4-0.9,1.2-0.9c1.1,0,1.7,0.7,2,1l1.4-1.7
 c-0.3-0.4-1.4-1.3-3.2-1.3c-2.2,0-3.7,1.4-3.7,3.1c0,3.3,4.8,3.1,4.8,4.7C50.5,28.7,50,29.2,49.1,29.2z M53.8,25.8
 c0,3.1,1.3,5.3,4.5,5.3c1.8,0,2.9-0.7,3.3-1.2l-1.3-1.6c-0.3,0.4-0.9,0.9-1.9,0.9c-1.6,0-2.3-1.3-2.3-3.5c0-2.4,0.7-3.4,2.1-3.4
 c1.1,0,1.6,0.5,1.9,1l1.5-1.7c-0.3-0.3-1.2-1.2-3.3-1.2C55.3,20.3,53.8,22.5,53.8,25.8z M68.9,20.5v4.3h-3.8v-4.3h-2.3V31h2.3v-4.3
 h3.8V31h2.3V20.5H68.9z M77.5,29.2c-1.3,0-1.9-0.8-1.9-2.3v-6.4h-2.3v6.9c0,2.2,1.1,3.8,3.8,3.8c2.3,0,4.3-1.1,4.3-4.3v-6.4h-2.3
 v6.7C79.2,28.6,78.6,29.2,77.5,29.2z M83.5,20.5V31h6.2v-1.9h-3.9v-8.6H83.5z M97.2,31v-1.9h-4.1v-2.5h3.4v-1.9h-3.4v-2.3H97v-1.9
 h-6.2V31H97.2z"></path> <path fill="#575756" d="M6.7,16.8H9V6.3H6.7V16.8z M13.4,9.1c0.4,1.2,0.9,2.2,1.4,3.2l2.3,4.4h2.7V6.3h-2.2v3.3c0,1.1,0,2.6,0.1,4
 h-0.1c-0.4-1-1-2.2-1.5-3.2L14,6.3h-2.7v10.5h2.2v-4C13.5,11,13.4,10.2,13.4,9.1L13.4,9.1z M24.1,9.1c0.4,1.2,0.9,2.2,1.4,3.2
 l2.3,4.4h2.7V6.3h-2.2v3.3c0,1.1,0,2.6,0.1,4h-0.1c-0.4-1-1-2.2-1.5-3.2l-2.1-4.1H22v10.5h2.2v-4C24.2,11,24.1,10.2,24.1,9.1
 L24.1,9.1z M34.4,11.4c0-2.6,0.8-3.4,1.9-3.4c1.3,0,2.1,0.9,2.1,3.5c0,2.6-0.7,3.4-1.9,3.4C35.2,15,34.4,14.1,34.4,11.4z M40.8,11.5
 c0-3.9-1.7-5.3-4.3-5.3c-2.5,0-4.4,1.6-4.4,5.5c0,3.9,1.6,5.3,4.3,5.3C38.9,16.9,40.8,15.3,40.8,11.5z M44.4,16.8h3l3.4-10.5h-2.4
 l-1.6,5.7c-0.3,1-0.5,1.9-0.7,2.9h-0.1c-0.2-1-0.5-1.9-0.7-2.9l-1.6-5.7H41L44.4,16.8z M53.9,10.9c0.4-1.3,0.6-2.2,0.8-3.1h0.1
 c0.2,0.9,0.4,1.7,0.8,3.1l0.4,1.5h-2.5L53.9,10.9z M53.1,6.3l-3.2,10.5h2.3l0.7-2.4h3.5l0.7,2.4h2.4L56.3,6.3H53.1z M61.4,16.8h2.3
 V8.1h2.6V6.3h-7.5v1.9h2.6V16.8z M67.3,16.8h2.3V6.3h-2.3V16.8z M74.2,16.8h3l3.4-10.5h-2.4l-1.6,5.7c-0.3,1-0.5,1.9-0.7,2.9h-0.1
 c-0.2-1-0.5-1.9-0.7-2.9l-1.6-5.7h-2.5L74.2,16.8z M87.9,16.8v-1.9h-4.1v-2.5h3.4v-1.9h-3.4V8.1h3.9V6.3h-6.2v10.5H87.9z"></path> <path fill="#575756" d="M102.4,153.9c-0.9,0-1.3-0.6-1.3-1.6v-4.4h-1.6v4.7c0,1.5,0.8,2.6,2.7,2.6c1.6,0,3-0.7,3-3v-4.4h-1.6v4.6
 C103.6,153.5,103.2,153.9,102.4,153.9 M108.3,149.8c0.3,0.8,0.6,1.5,1,2.2l1.6,3.1h1.9v-7.2h-1.5v2.3c0,0.8,0,1.8,0.1,2.8h0
 c-0.3-0.7-0.7-1.5-1-2.2l-1.5-2.9h-1.9v7.2h1.5v-2.7C108.4,151.1,108.3,150.6,108.3,149.8L108.3,149.8z M114.4,155.1h2.3
 c2.7,0,3.4-1.9,3.4-3.8c0-2.3-1.1-3.5-3.4-3.5h-2.3V155.1z M116,149.2h0.6c1.1,0,1.9,0.6,1.9,2.3c0,1.4-0.4,2.3-1.9,2.3H116V149.2z
 M126.1,147.9h-1.6v7.2h1.6V147.9z M126.2,151.4L126.2,151.4l2.2,3.7h2l-2.5-3.7l2.3-3.5h-1.8L126.2,151.4z M134.1,153.9
 c-0.9,0-1.3-0.6-1.3-1.6v-4.4h-1.6v4.7c0,1.5,0.8,2.6,2.7,2.6c1.6,0,3-0.7,3-3v-4.4h-1.6v4.6C135.3,153.5,134.9,153.9,134.1,153.9z
 M131.9,146.3c0,0.5,0.4,0.8,0.8,0.8c0.5,0,0.8-0.4,0.8-0.8c0-0.5-0.4-0.8-0.8-0.8C132.3,145.5,131.9,145.8,131.9,146.3z
 M134.5,146.3c0,0.5,0.4,0.8,0.8,0.8c0.5,0,0.8-0.4,0.8-0.8c0-0.5-0.4-0.8-0.8-0.8C134.9,145.5,134.5,145.8,134.5,146.3z
 M140.6,153.9c-0.9,0-1.5-0.6-1.8-0.9l-0.9,1.3c0.2,0.3,1.1,0.9,2.5,0.9c1.8,0,2.7-1.1,2.7-2.1c0-2.3-3.3-2.1-3.3-3.3
 c0-0.4,0.3-0.7,0.8-0.7c0.8,0,1.2,0.5,1.4,0.7l1-1.2c-0.2-0.3-1-0.9-2.2-0.9c-1.5,0-2.6,0.9-2.6,2.1c0,2.3,3.3,2.1,3.3,3.3
 C141.6,153.6,141.3,153.9,140.6,153.9z M145.1,155.1h1.6v-5.9h1.8v-1.3h-5.2v1.3h1.8V155.1z M153.8,155.1v-1.3H151v-1.7h2.3v-1.3
 H151v-1.6h2.7v-1.3h-4.3v7.2H153.8z"></path> <path fill="#575756" d="M42.6,141.3l3.2-4.6l-0.2-1.2H41v1.3h2.8v0l-3.2,4.6l0.2,1.2h4.9v-1.3L42.6,141.3L42.6,141.3 M49.1,140.9
 c0-0.8-0.2-1.7-0.4-2.6l-0.7-2.9h-1.7l1.8,7.2h1.9l0.8-3.5c0.2-0.6,0.2-1.2,0.4-1.9h0c0.1,0.7,0.2,1.3,0.4,2.3l0.7,3.2h1.9l1.9-7.2
 h-1.6l-0.7,3.1c-0.2,0.9-0.4,1.7-0.4,2.4h0c-0.1-0.7-0.2-1.1-0.4-1.9l-0.8-3.5h-1.9l-0.8,3.5C49.3,139.7,49.2,140.1,49.1,140.9
 L49.1,140.9z M57,142.7h1.6v-7.2H57V142.7z M62.5,141.5c-0.9,0-1.5-0.6-1.8-0.9l-0.9,1.3c0.2,0.3,1.1,0.9,2.5,0.9
 c1.8,0,2.7-1.1,2.7-2.1c0-2.3-3.3-2.1-3.3-3.3c0-0.4,0.3-0.7,0.8-0.7c0.8,0,1.2,0.5,1.4,0.7l1-1.2c-0.2-0.3-1-0.9-2.2-0.9
 c-1.5,0-2.6,0.9-2.6,2.1c0,2.3,3.3,2.1,3.3,3.3C63.4,141.2,63.1,141.5,62.5,141.5z M65.9,139.2c0,2.2,0.9,3.6,3.1,3.6
 c1.3,0,2-0.5,2.3-0.8l-0.9-1.1c-0.2,0.3-0.6,0.6-1.3,0.6c-1.1,0-1.6-0.9-1.6-2.4c0-1.6,0.5-2.4,1.5-2.4c0.8,0,1.1,0.4,1.3,0.7l1-1.1
 c-0.2-0.2-0.8-0.8-2.3-0.8C67,135.4,65.9,136.9,65.9,139.2z M76.6,135.5v3H74v-3h-1.6v7.2H74v-3h2.6v3h1.6v-7.2H76.6z M84.3,142.7
 v-1.3h-2.8v-1.7h2.3v-1.3h-2.3v-1.6h2.7v-1.3h-4.3v7.2H84.3z M87.2,137.4c0.3,0.8,0.6,1.5,1,2.2l1.6,3.1h1.8v-7.2h-1.5v2.3
 c0,0.8,0,1.8,0.1,2.8h0c-0.3-0.7-0.7-1.5-1-2.2l-1.5-2.9h-1.9v7.2h1.5V140C87.2,138.7,87.2,138.2,87.2,137.4L87.2,137.4z
 M98.5,140.9c0-0.8-0.2-1.7-0.4-2.6l-0.7-2.9h-1.7l1.8,7.2h1.9l0.8-3.5c0.2-0.6,0.2-1.2,0.4-1.9h0c0.1,0.7,0.2,1.3,0.4,2.3l0.7,3.2
 h1.9l1.9-7.2h-1.6l-0.7,3.1c-0.2,0.9-0.4,1.7-0.4,2.4h0c-0.1-0.7-0.2-1.1-0.4-1.9l-0.8-3.5h-1.9l-0.8,3.5
 C98.8,139.7,98.7,140.1,98.5,140.9L98.5,140.9z M110.8,142.7v-1.3H108v-1.7h2.3v-1.3H108v-1.6h2.7v-1.3h-4.3v7.2H110.8z
 M114.4,141.5c-0.9,0-1.5-0.6-1.8-0.9l-0.9,1.3c0.2,0.3,1.1,0.9,2.5,0.9c1.8,0,2.7-1.1,2.7-2.1c0-2.3-3.3-2.1-3.3-3.3
 c0-0.4,0.3-0.7,0.8-0.7c0.8,0,1.2,0.5,1.4,0.7l1-1.2c-0.2-0.3-1-0.9-2.2-0.9c-1.5,0-2.6,0.9-2.6,2.1c0,2.3,3.3,2.1,3.3,3.3
 C115.3,141.2,115,141.5,114.4,141.5z M122.6,142.7v-1.3h-2.8v-1.7h2.3v-1.3h-2.3v-1.6h2.7v-1.3h-4.3v7.2H122.6z M124,135.5v7.2h1.6
 V140h0.1c0.3,0,0.5,0.1,0.7,0.3l1.2,2.4h1.9l-1.1-2c-0.3-0.6-0.6-0.9-1-1.1v0c0.8-0.2,1.5-0.8,1.5-2c0-1.5-0.9-2.1-2.5-2.1H124z
 M125.5,136.8h0.6c0.7,0,1.1,0.3,1.1,1c0,0.7-0.3,1-1.1,1h-0.6V136.8z M129.7,140h3.5v-1.2h-3.5V140z M138.6,142.7v-1.3h-2.8v-1.7
 h2.3v-1.3h-2.3v-1.6h2.7v-1.3h-4.3v7.2H138.6z M143.8,139.4l-1.4-3.9H140v7.2h1.4v-5.4h0.1l1.6,4.5h1.3l1.6-4.5h0v5.4h1.5v-7.2h-2.4
 L143.8,139.4L143.8,139.4z M151.4,141.5c-0.9,0-1.5-0.6-1.8-0.9l-0.9,1.3c0.2,0.3,1.1,0.9,2.5,0.9c1.8,0,2.7-1.1,2.7-2.1
 c0-2.3-3.3-2.1-3.3-3.3c0-0.4,0.3-0.7,0.8-0.7c0.8,0,1.2,0.5,1.4,0.7l1-1.2c-0.2-0.3-1-0.9-2.2-0.9c-1.5,0-2.6,0.9-2.6,2.1
 c0,2.3,3.3,2.1,3.3,3.3C152.4,141.2,152.1,141.5,151.4,141.5z"></path> <path fill="#575756" d="M25.7,130.3h1.6v-5.9h1.8V123h-5.2v1.3h1.8V130.3 M29.9,123v7.2h1.6v-2.7h0.1c0.3,0,0.5,0.1,0.7,0.3l1.2,2.4
 h1.9l-1.1-2c-0.3-0.6-0.6-0.9-1-1.1v0c0.8-0.2,1.5-0.8,1.5-2c0-1.5-0.9-2.1-2.5-2.1H29.9z M31.5,124.3h0.6c0.7,0,1.1,0.3,1.1,1
 c0,0.7-0.3,1-1.1,1h-0.6V124.3z M38.3,126.3c0.3-0.9,0.4-1.5,0.5-2.1h0c0.1,0.6,0.3,1.2,0.5,2.2l0.3,1H38L38.3,126.3z M37.8,123
 l-2.2,7.2h1.6l0.5-1.7h2.4l0.5,1.7h1.7L40,123H37.8z M44.6,125c0.3,0.8,0.6,1.5,1,2.2l1.6,3.1H49V123h-1.5v2.3c0,0.8,0,1.8,0.1,2.8
 h0c-0.3-0.7-0.7-1.5-1-2.2l-1.5-2.9h-1.9v7.2h1.5v-2.7C44.7,126.3,44.7,125.7,44.6,125L44.6,125z M52.9,129.1
 c-0.9,0-1.5-0.6-1.8-0.9l-0.9,1.3c0.2,0.3,1.1,0.9,2.5,0.9c1.8,0,2.7-1.1,2.7-2.1c0-2.3-3.3-2.1-3.3-3.3c0-0.4,0.3-0.7,0.8-0.7
 c0.8,0,1.2,0.5,1.4,0.7l1-1.2c-0.2-0.3-1-0.9-2.2-0.9c-1.5,0-2.6,0.9-2.6,2.1c0,2.3,3.3,2.1,3.3,3.3
 C53.8,128.7,53.5,129.1,52.9,129.1z M58.2,130.3v-2.7h2.3v-1.3h-2.3v-1.9h2.7V123h-4.3v7.2H58.2z M66.6,130.3V129h-2.8v-1.7h2.3V126
 h-2.3v-1.6h2.7V123h-4.3v7.2H66.6z M68,123v7.2h1.6v-2.7h0.1c0.3,0,0.5,0.1,0.7,0.3l1.2,2.4h1.9l-1.1-2c-0.3-0.6-0.6-0.9-1-1.1v0
 c0.8-0.2,1.5-0.8,1.5-2c0-1.5-0.9-2.1-2.5-2.1H68z M69.6,124.3h0.6c0.7,0,1.1,0.3,1.1,1c0,0.7-0.3,1-1.1,1h-0.6V124.3z M76.8,123
 h-2.5v7.2h1.6v-2.6h0.6c2.1,0,2.8-1.2,2.8-2.5C79.4,123.6,78.3,123,76.8,123z M76.6,124.4c0.8,0,1.2,0.3,1.2,1c0,0.6-0.2,1-1.3,1
 h-0.5v-2H76.6z M81.9,126.3c0.3-0.9,0.4-1.5,0.5-2.1h0c0.1,0.6,0.3,1.2,0.5,2.2l0.3,1h-1.7L81.9,126.3z M81.3,123l-2.2,7.2h1.6
 l0.5-1.7h2.4l0.5,1.7h1.7l-2.2-7.2H81.3z M86.7,123v7.2h1.6v-2.7h0.1c0.3,0,0.5,0.1,0.7,0.3l1.2,2.4h1.9l-1.1-2
 c-0.3-0.6-0.6-0.9-1-1.1v0c0.8-0.2,1.5-0.8,1.5-2c0-1.5-0.9-2.1-2.5-2.1H86.7z M88.3,124.3h0.6c0.7,0,1.1,0.3,1.1,1
 c0,0.7-0.3,1-1.1,1h-0.6V124.3z M94,130.3h1.6v-5.9h1.8V123h-5.2v1.3H94V130.3z M99.8,125c0.3,0.8,0.6,1.5,1,2.2l1.6,3.1h1.9V123
 h-1.5v2.3c0,0.8,0,1.8,0.1,2.8h0c-0.3-0.7-0.7-1.5-1-2.2l-1.5-2.9h-1.9v7.2h1.5v-2.7C99.8,126.3,99.8,125.7,99.8,125L99.8,125z
 M110.3,130.3V129h-2.8v-1.7h2.3V126h-2.3v-1.6h2.7V123h-4.3v7.2H110.3z M111.7,123v7.2h1.6v-2.7h0.1c0.3,0,0.5,0.1,0.7,0.3l1.2,2.4
 h1.9l-1.1-2c-0.3-0.6-0.6-0.9-1-1.1v0c0.8-0.2,1.5-0.8,1.5-2c0-1.5-0.9-2.1-2.5-2.1H111.7z M113.3,124.3h0.6c0.7,0,1.1,0.3,1.1,1
 c0,0.7-0.3,1-1.1,1h-0.6V124.3z M120.2,129.1c-0.9,0-1.5-0.6-1.8-0.9l-0.9,1.3c0.2,0.3,1.1,0.9,2.5,0.9c1.8,0,2.7-1.1,2.7-2.1
 c0-2.3-3.3-2.1-3.3-3.3c0-0.4,0.3-0.7,0.8-0.7c0.8,0,1.2,0.5,1.4,0.7l1-1.2c-0.2-0.3-1-0.9-2.2-0.9c-1.5,0-2.6,0.9-2.6,2.1
 c0,2.3,3.3,2.1,3.3,3.3C121.1,128.7,120.8,129.1,120.2,129.1z M123.6,126.7c0,2.2,0.9,3.7,3.1,3.7c1.3,0,2-0.5,2.3-0.8l-0.9-1.1
 c-0.2,0.3-0.6,0.6-1.3,0.6c-1.1,0-1.6-0.9-1.6-2.4c0-1.6,0.5-2.4,1.5-2.4c0.8,0,1.1,0.4,1.3,0.7l1-1.1c-0.2-0.2-0.8-0.8-2.3-0.8
 C124.7,123,123.6,124.5,123.6,126.7z M134.3,123v3h-2.6v-3h-1.6v7.2h1.6v-3h2.6v3h1.6V123H134.3z M139.6,126.3
 c0.3-0.9,0.4-1.5,0.5-2.1h0c0.1,0.6,0.3,1.2,0.5,2.2l0.3,1h-1.7L139.6,126.3z M139,123l-2.2,7.2h1.6l0.5-1.7h2.4l0.5,1.7h1.7
 l-2.2-7.2H139z M146,130.3v-2.7h2.3v-1.3H146v-1.9h2.7V123h-4.3v7.2H146z M151,130.3h1.6v-5.9h1.8V123h-5.2v1.3h1.8V130.3z"></path> <path fill="#575756" d="M89.5,117.9h2.3c2.7,0,3.4-1.9,3.4-3.8c0-2.3-1.1-3.5-3.4-3.5h-2.3V117.9 M91.1,111.9h0.6
 c1.1,0,1.9,0.6,1.9,2.3c0,1.4-0.4,2.3-1.9,2.3h-0.6V111.9z M101.9,110.6h-1.7l-1.5,3.3h0l-1.5-3.3h-1.8l2.4,4.9v2.3h1.6v-2.3
 L101.9,110.6z M104.2,112.6c0.3,0.8,0.6,1.5,1,2.2l1.6,3.1h1.9v-7.2h-1.5v2.3c0,0.8,0,1.8,0.1,2.8h0c-0.3-0.7-0.7-1.5-1-2.2
 l-1.5-2.9h-1.9v7.2h1.5v-2.7C104.2,113.9,104.2,113.3,104.2,112.6L104.2,112.6z M112.3,113.9c0.3-0.9,0.4-1.5,0.5-2.1h0
 c0.1,0.6,0.3,1.2,0.5,2.2l0.3,1H112L112.3,113.9z M111.8,110.6l-2.2,7.2h1.6l0.5-1.7h2.4l0.5,1.7h1.7l-2.2-7.2H111.8z M121,114.5
 l-1.4-3.9h-2.4v7.2h1.4v-5.4h0.1l1.6,4.5h1.3l1.6-4.5h0v5.4h1.5v-7.2h-2.4L121,114.5L121,114.5z M126.5,117.9h1.6v-7.2h-1.6V117.9z
 M132,116.7c-0.9,0-1.5-0.6-1.8-0.9l-0.9,1.3c0.2,0.3,1.1,0.9,2.5,0.9c1.8,0,2.7-1.1,2.7-2.1c0-2.3-3.3-2.1-3.3-3.3
 c0-0.4,0.3-0.7,0.8-0.7c0.8,0,1.2,0.5,1.4,0.7l1-1.2c-0.2-0.3-1-0.9-2.2-0.9c-1.5,0-2.6,0.9-2.6,2.1c0,2.3,3.3,2.1,3.3,3.3
 C133,116.3,132.7,116.7,132,116.7z M135.4,114.3c0,2.2,0.9,3.7,3.1,3.7c1.3,0,2-0.5,2.3-0.8L140,116c-0.2,0.3-0.6,0.6-1.3,0.6
 c-1.1,0-1.6-0.9-1.6-2.4c0-1.6,0.5-2.4,1.5-2.4c0.8,0,1.1,0.4,1.3,0.7l1-1.1c-0.2-0.2-0.8-0.8-2.3-0.8
 C136.5,110.5,135.4,112.1,135.4,114.3z M146.1,110.6v3h-2.6v-3h-1.6v7.2h1.6v-3h2.6v3h1.6v-7.2H146.1z M153.8,117.9v-1.3H151v-1.7
 h2.3v-1.3H151v-1.6h2.7v-1.3h-4.3v7.2H153.8z"></path> <polyline fill="#575756" points="84.1,144.1 84.1,146.6 15,146.6 15,52.1 6.4,52.1 6.4,155.2 84.1,155.2 84.1,157.5 89.9,150.8 
 84.1,144.1 "></polyline> <polyline fill="#575756" points="153.7,105.6 153.7,6.4 104,6.4 104,4 98.2,10.7 104,17.5 104,15 145.1,15 145.1,105.6 153.7,105.6 
 "></polyline> </svg>